<?xml version="1.0" encoding="UTF-8"?>
<svg enable-background="new -466.5393 559.7792 2689.4846 973.8884" version="1.1" viewBox="-466.5393 559.7792 2689.4846 973.8884" xmlns="http://www.w3.org/2000/svg">
 <path d="m2156.9 852.4c-1.9412-55.22-5.3928-110.53-14.215-165.13-2.7051-14.845-4.9033-29.906-9.8469-44.222-1.3635-3.9483-4.0835-8.7588-7.323-11.487-1.5562-1.3103-3.7405-2.0624-5.6633-1.3985-2.8125 0.9712-3.8789 4.3126-4.562 7.2087-2.1816 9.2507-4.3601 18.525-5.658 27.95-0.6582 4.7793-1.0938 9.5938-1.1714 14.419-0.0686 4.2697 0.8379 8.7046 0.3018 12.924-0.9268 7.2936-6.5657 12.998-11.003 18.435-5.2822 6.4713-10.316 13.115-15.807 19.42-11.782 13.53-24.666 26.122-38.692 37.32-2.2463 1.7935-4.5214 3.551-6.8248 5.2704-23.563 17.824-49.972 31.679-77.578 42.12-53.019 19.869-109.42 28.411-165.44 34.712-241.82 28.525-485.37 37.357-728.58 44.627-2.1647 0.3336-3.0769-2.264-4.5629-3.2742-28.678-1.2622-57.431-1.1069-86.126-1.8697-21.36 1.9651-41.532-18.804-39.006-40.099 1.0363-10.152 8.0287-19.003 16.964-23.594 12.199-6.4813 26.556-6.9764 40.034-5.7275 1.8981-6.6495 3.7961-13.299 5.3693-20.006-12.472 0.9586-25.153 1.7371-37.085 5.854-12.303 4.6111-25.862 9.7265-32.724 21.802-14.973 22.675-7.1014 56.075 15.63 70.57-31.701 0.5891-63.392 1.6918-95.088 2.7411 0.187-1.0005 0.5543-2.9881 0.7342-3.9754 3.1975 0.0748 6.4034 0.103 9.6093 0.1313-1.0734-5.9231-4.266-12.064-10.609-13.559-6.4743-1.1588-13.12-0.2233-19.656-0.7374 0.1021-4.4034 0.1042-8.81 0.1126-13.197-3.955 0.0397-7.9015 0.0332-11.848 0.0265 0.1988-22.067-0.0091-44.135 0.2361-66.194 7.6212-0.4226 15.56 1.1923 22.973-0.9707 5.5835-4.6315 4.7243-17.881-4.0858-17.985-21.596-0.1296-43.212-0.0665-64.811-0.1295-10.219-0.8187-11.25 18.254-1.2475 18.972 6.4893 0.3193 13.003-0.0941 19.502 0.1455-0.0182 22.047-0.1826 44.082-0.0677 66.133-3.9514-0.0602-7.9122-0.0406-11.864-0.1008 0.0551 4.4887-0.0765 8.9777-0.2819 13.478-9.6385 0.1412-21.861-2.7653-28.062 6.9389-0.558 2.3078-1.1312 4.6752-1.7107 7.0224 3.3616-0.0397 6.7208-0.013 10.079 0.0471-0.1008 1.9967-0.129 4.0157-0.338 6.0554-7.1749 0.631-14.425 0.3393-21.611 0.71 0.1262-2.3558 0.2253-4.6926 0.3766-7.0009 3.2832 0.1043 6.5627 0.1217 9.8373 0.0857-0.9058-5.9508-4.2656-11.878-10.458-13.494-6.4532-1.1981-13.08-0.4218-19.592-0.4485-0.1143-4.3173-0.069-8.616 0.056-12.905-4.002-0.3419-7.9922-0.83-12.006-0.8057 0.363-21.995-0.0336-43.996 0.3425-65.984 6.4923 0.0327 12.995 0.359 19.481-2e-3 2.4612-0.0368 4.2151-2.0176 6.1818-3.2045 0.3434-4.4419 1.5061-9.4561-1.2744-13.39-1.6274-1.5616-3.8312-2.4361-6.0546-2.3379-21.319-0.0469-42.638-0.0938-63.945-0.1002-10.518-1.2687-11.799 18.108-1.6793 18.924 6.5285 0.3406 13.068-0.0251 19.6 0.2155-0.1943 21.934 0.0574 43.89-0.2499 65.813-3.8633 0.6829-7.8 0.1899-11.693 0.1783 0.0358 4.4613-0.1019 8.9301-0.1799 13.414-6.3375 0.1192-12.752-0.6508-19.027 0.3839-6.2768 1.2878-9.9679 7.3367-10.97 13.303 3.3799 0.3941 6.7867 0.3958 10.187 0.1907-0.1604 3.1681-0.2148 6.3596-0.2896 9.5572-7.5598 0.1847-15.127 0.1956-22.683 0.6537 0.048-3.1774 0.0902-6.3412 0.1837-9.4778v-0.672c3.2388 0.0286 6.4776 0.0548 9.7164 0.0973-0.6873-5.51-3.4034-11.155-8.9483-13.183-6.765-2.0286-13.905-0.4631-20.835-1.1573-0.3461-4.3584-0.1714-8.7393-0.0514-13.082-3.9777-0.0744-7.9432-0.1083-11.924-0.0829 0.2452-22.059-0.0828-44.124 0.2825-66.186 7.1838-0.304 14.5 0.8033 21.603-0.4769 7.5193-3.326 6.2141-19.157-3.308-18.512-21.286-0.0458-42.598-0.1058-63.884-0.1182-3.9649-0.254-8.4758 2.4336-8.2581 6.8412-0.6539 4.3579-0.1116 10.603 5.0123 11.876 7.0444 0.858 14.186 0.0393 21.256 0.5381-0.3975 22.027-0.0816 44.052-0.3198 66.098-3.8432-0.1031-7.6829-0.1196-11.52-0.2025-0.2304 4.4523-0.3681 8.9211-0.2929 13.404-6.4647 0.1349-13.012-0.6396-19.43 0.4703-6.1948 1.4174-9.7111 7.4254-10.625 13.355 3.2843 0.0395 6.5688 0.0635 9.8534 0.0893v0.9036c0.2039 5.2137 0.0475 10.435-0.0958 15.664-58.944-0.1313-117.9 0.4104-176.85 0.612-125.02 0.5633-250.04 1.1063-375.05 1.7565-7.2785 0.5408-14.327-1.9642-21.63-1.2842-7.4858 0.3606-14.894-0.9831-22.348-1.3682-0.097-2.2568-0.0752-4.4826-0.0736-6.7028-1.6981-1.244-3.2853-3.0043-5.6081-2.7228-5.8706-0.085-11.804-0.4921-17.644 0.3039-4.4805 1.1954-3.0092 6.9785-3.5934 10.459-4.7046 0.3278-9.4532-0.0126-14.143 0.6623-0.1756 0.8541-0.5135 2.5695-0.6889 3.4235-35.633-0.2238-71.29-0.155-106.93-0.3324-0.4458-0.6152-1.3519-1.8191-1.7978-2.4341-3.8586-0.0438-7.7254-0.041-11.604-0.0788-0.3554 0.6547-1.0723 1.9438-1.4337 2.5782-4.1599-0.207-8.3459 0.1648-12.498-0.2755-2.9194-2.5854-5.5877-6.2889-9.9383-6.176-4.9072-0.5791-9.2712 2.4937-11.943 6.3835-7.3217-0.3475-14.702 0.2567-22.014-0.3904-4.9315-6.3735-11.139-12.677-19.669-13.358-10.249-0.3262-20.526-0.0402-30.79-0.1203-8.0853-5.9665-16.156-11.96-23.984-18.244-9.6915-0.2608-19.385-0.2681-29.077-0.1223-1.9635 2.2737-4.3603 4.3461-5.3546 7.3327-5.7666 13.806-6.6206 29.024-6.8406 43.823 0.2034 15.487 1.1465 30.986 3.2748 46.332 1.2796 8.1035 2.4896 16.491 6.5108 23.761 2.2811 3.9171 7.0844 3.0327 10.875 3.1074 6.6619-0.2482 13.343 0.3109 19.977-0.2917 6.2176-6.2368 12.735-12.277 19.749-17.607 11.971-1.0956 24.159 0.2496 36.188-0.6107 10.231-1.701 15.459-11.985 19.28-20.522 7.2302 0.2975 14.485-0.1373 21.704 0.3065 3.6107 2.2488 7.0889 6.053 11.729 5.4697 3.9487-0.0598 6.86-2.9549 9.5698-5.4167 4.7562 0.514 11.677-2.2723 14.723 2.2974 3.6839 0.0845 7.364 0.0822 11.042 0.1465 0.7026-0.6697 2.1078-2.0089 2.7974-2.6856 35.502 0.3726 71.003 0.372 106.51 0.2714 0.0903 2.4565 0.2128 4.9474 0.3354 7.4382 3.8455 0.0367 7.684 0.0862 11.51 0.0955-4.5115 5.4678-9.5898 10.543-13.192 16.708 3.9049 3.0184 7.6839 6.2063 11.714 9.0559 1.644-2.0912 3.2357-4.2108 4.787-6.3184 4.5625 1.9008 9.5059 4.5679 14.592 3.0063 6.4704-1.4881 11.272-7.8327 11.32-14.385-0.1634-4.6323-3.4165-8.1956-4.943-12.347 2.6703 1.6703 3.596 5.6483 7.122 5.8674 2.8492 0.123 5.6869-0.2011 8.5227-0.2722 0.1333-1.1822 0.4058-3.5262 0.5391-4.7085 8.0087 0.7373 16.29-1.0896 24.069 1.3198 9.274 0.1866 18.554-0.0132 27.828-0.0132-16.986 15.766-30.922 34.75-41.464 55.354-5.7224 12.694-10.954 25.671-14.002 39.308-12.08 49.726-2.2117 102.96 21.428 147.79 14.385 27.494 33.551 53.362 59.68 70.685 27.12 18.557 59.858 26.363 92.046 30.277 38.596 4.4775 77.512 4.652 116.29 6.2622 9.8444 0.6659 19.873 0.0248 29.469 2.709 14.028 3.3273 28.134-0.9828 42.246-0.7461 75.919-2.4686 151.83-4.8909 227.75-7.4261 0.0684 35.47-0.2104 70.955-0.2491 106.43-2.1315 2.7083-2.8038 6.819-0.5817 9.7208-1.337 2.2748-1.8134 4.9321-0.1513 7.2416-2.4528 5.1107 0.7432 11.152 4.6465 14.611 4.1164 3.6593 9.7183 4.3953 14.994 4.14 19.515-0.0341 39.012 0.058 58.513 0.0502 6.884 0.2792 13.538-4.2627 15.987-10.647 1.1907-2.8798 2.1761-6.7867-1.6152-8.2347l2.7199 0.2052c-0.1722-2.3993 0.6011-5.1665-1.3096-7.0177 1.3881-2.2133 1.519-4.7021 1.3619-7.1609-2.0123-1.4148-1.6849-3.7971-2.0635-5.8167 6.9763-0.0776 13.961-0.0149 20.933 0.0404-1.1635 4.0475-3.3004 8.2955-1.7643 12.554-0.424 2.6858-1.1258 5.6954 0.9037 7.984-2.3089 2.0355-1.242 5.1917-0.2766 7.5977 2.3534 6.313 8.9659 10.683 15.677 10.563 20.928 0.1737 41.852 0.074 62.777 0.1276 8.948 0.1624 16.233-7.4785 17.073-16.144-0.5122-0.4307-1.5627-1.3063-2.0748-1.7368 1.8042-2.2925 2.9402-5.7274 0.4008-7.9199 0.3936-0.6002 1.188-1.8134 1.5816-2.4133-0.1039-1.4636-0.2088-2.8939-0.315-4.2909-1.3615-1.926-2.2443-4.0159-1.533-6.3252 6.832 0.4375 13.675-0.2379 20.502 0.3658-0.9413 3.9817-4.4415 9.1169-0.6951 12.677-0.6906 0.7098-1.3765 1.4735-2.0694 2.2501 0.4543 1.942 1.0563 3.8624 1.9612 5.6931-2.3238 1.6881-1.162 4.7941-0.4575 7.0245 2.4466 6.5164 9.1584 11.11 16.158 10.926 20.804 0.0895 41.612 0.0791 62.425 0.089 6.7377 0.0811 13.326-4.3101 15.614-10.646 1.0009-2.593 1.9986-5.6793-0.6415-7.6553 0.5557-0.4613 1.6394-1.3647 2.1879-1.8126-0.5198-1.9778-0.866-3.9629-1.2873-5.9038 2.8909-4.8557-1.5051-9.1245-0.9854-14.047 0.5181-33.49-0.3681-67.048 0.5292-100.52 90.639-0.698 181.28-1.4291 271.92-1.8405-0.0448 2.7051 0.0497 5.4352-0.1232 8.1893-5.6406 3.3629-11.304 7.985-12.245 14.933-2.4164 10.352 6.0083 21.47 16.631 21.982 7.978 0.8563 15.302-4.2031 19.078-10.969 11.742 0.1368 23.498-0.3129 35.226-0.1498 3.1487-0.0537 4.2184 3.5958 6.3932 5.3361 8.4459 9.1123 25.01 5.4584 29.978-5.6274 30.485-0.3168 60.958-0.894 91.419-0.6982-0.0271 3.7659-0.329 7.569 0.1229 11.358 3.9594 1.0138 8.1007 0.3804 12.139 0.4369 0.2614-2.0112 0.4004-3.9535 0.7391-5.8887 8.9481 0.1622 17.88-0.396 26.828-0.0137-0.1132 1.7695-0.187 3.5605-0.2417 5.3787 4.1788 0.2345 8.368 0.3561 12.55 0.1173 0.223-4.0326 0.3256-8.0625 0.2075-12.06 9.9985-0.1489 19.996-0.0778 30.004-0.3065 0.2588-4.5046 0.3641-9.0078 0.1226-13.496-10.033-0.2255-20.074 0.1886-30.111 0.0962 0.0865-3.937 0.0587-7.8514 0.0439-11.759-3.7957-0.1283-7.5797-0.4027-11.359-0.0306-1.8073 1.2058-1.0697 3.8442-1.7583 5.6742-8.9098-0.1075-17.825 0.3246-26.741 0.01 0.1334-1.7756 0.2799-3.5439 0.4382-5.272-4.3053-0.4387-8.6433-0.5054-12.952-0.0642-0.0673 3.9645-0.0356 7.9656-0.184 11.954-30.081 0.1971-60.172 0.5071-90.263 0.8173-2.0812-5.6906-6.6136-9.8638-11.929-12.563 0.0144-1.8062 0.0275-3.5792 0.0598-5.3247 57.813 1.4331 115.62 2.9126 173.42 4.3921 0.3882-2.8068 0.5765-5.6206 0.7769-8.3939 19.368-0.6058 40.189 1.5446 57.612-8.7805-2.1718 2.3134-4.5968 4.438-6.5098 6.9935 0.2301 3.4479-0.3594 6.6881-2.9786 9.2329 3.2544 3.7168 6.6171 7.3904 10.658 10.314 1.4565-1.4642 2.9197-2.9415 4.433-4.3235 2.9744 3.3269 6.1281 6.4803 9.4324 9.5121-1.3175 0.5222-2.6031 1.0787-3.8898 1.6686 1.7166 3.4581 3.0226 7.4224 6.1166 9.967 4.9855 2.8083 10.656-0.4535 15.336-2.4221 9.4011-5.3558 19.399-11.405 24.456-21.374 6.474-10.675 6.6276-23.51 10.756-35.018 11.233 0.0128 22.474-0.2074 33.723-0.254 0.2471-0.7983 0.7421-2.4283 0.9962-3.2397 28.805-1.7202 57.182-10.082 82.284-24.341 0.4116 1.2405 0.9562 2.4856 1.2632 3.8561-3.6444 2.4969-7.6791 4.3074-11.544 6.4302 1.7856 4.7671 4.3151 9.226 7.2946 13.387 4.7461-2.1531 8.9972-5.8295 14.267-6.5116-4.3102 3.0679-9.2958 5.0061-14.097 7.1974 0.1648 4.0056-0.3914 8.6202 2.356 11.96 4.5884 4.1018 11.893 4.3553 17.227 1.5887 14.241-9.8657 30.015-17.593 42.752-29.53 10.499-8.8456 18.368-20.153 26.627-30.961 2.1228-4.035 3.4843-8.4159 5.4752-12.489 9.0969-18.253 14.557-37.989 21.575-57.066 4.7518-13.967 10.374-27.63 16.323-41.116 3.1931-6.5056 6.7493-12.899 8.079-20.094-1.9675-1.1531-3.9222-2.2992-5.8447-3.4108-5.6508 8.0027-11.419 15.941-16.782 24.134-15.655 27.865-23.585 59.145-37.284 87.903-3.3704-0.2872-6.7456-0.0345-10.005 0.722-2.9478-2.5331-5.8909-5.0123-8.6808-7.6801 11.974-15.809 21.513-33.534 28.04-52.268 18.276-51.551 12.902-110.75-14.255-158.22 25.361 1.3769 50.875 0.7855 76.094 4.1708 32.544 3.6662 65.091 7.2325 97.643 10.852 18.007 1.7751 35.331 7.2137 52.894 11.274 47.34 10.7 92.801 30.823 131.51 60.231 13.59 10.443 26.284 22.05 37.912 34.642 5.8159 6.2982 11.785 12.798 16.763 19.792 1.8921 2.6577 4.4355 4.4675 6.417 7.076 2.3645 3.1125 3.9087 6.8254 4.8257 10.607 1.5239 6.2831 1.4851 12.821 1.8989 19.273 0.3679 5.738 0.9966 11.466 2.0403 17.122 0.853 4.6212 1.5454 10.703 3.6848 14.895 1.271 2.49 3.7109 4.5822 6.5063 4.6156 2.4282 0.0292 4.6272-1.463 6.3057-3.2183 4.5283-4.7358 6.1565-11.203 7.5161-17.415 1.5767-7.2031 2.9329-14.425 4.1409-21.707 0.1101-0.6635 0.2202-1.3269 0.3308-1.9902 6.7564-107.43 9.4893-215.16 6.4043-322.76zm-1627.2 404.52c-80.519 2.4799-161.04 5.2797-241.57 7.7394-3.9138-2.7523-8.7754-1.9166-13.256-1.9078-2.0063-0.2079-3.5961 1.0652-5.179 2.1384-5.5568 0.4922-11.684-3.4282-11.676-9.4081-0.5233-6.8113 6.6617-12.082 13.036-9.9266-0.107 1.1964-0.3273 3.5692-0.4403 4.7454 5.7794 0.2218 12.206 1.999 17.352-1.5139 2.9399-0.9808 6.0786-0.5481 9.1117-0.7323 77.631-2.4373 155.25-5.1353 232.89-7.4858-0.1109 5.4496-0.0148 10.893-0.2658 16.351zm112.8 91.693c-6.7379-0.2676-13.493-0.2225-20.235-0.1703 0.2079-8.1266-0.3832-16.28 0.3633-24.368 6.6782-0.3409 13.381-0.2278 20.065-0.142-0.104 8.2167 0.1579 16.446-0.1936 24.681zm0.0605-83.887c-6.7266 0.5861-13.508 0.2435-20.247 0.3827 0.2025-6.5867-0.022-13.168 0.2534-19.732 6.7691-0.0715 13.56-0.1821 20.341-0.2129-0.2136 6.5131 0.2189 13.054-0.3478 19.562zm0.1524-78.31c-6.7544-0.1749-13.49 0.0842-20.245 0.1294 0.239-10.432 0.1048-20.864 0.124-31.297 6.7815 0.1559 13.572 0.2321 20.369-0.0453-0.0178 10.4 0.1768 20.814-0.2477 31.213zm113 162.18c-6.8239 0.1095-13.654 0.0121-20.483 0.0681 0.0552-8.3452-0.0298-16.682 0.0647-25.005 6.8505 0.0913 13.699-0.1572 20.556-0.0457-0.2611 8.3182-0.156 16.649-0.1374 24.983zm-0.039-100.88c-6.7795-0.4092-13.55-0.4912-20.332-0.6469 0.2777-30.518 0.0356-61.047 0.3135-91.565 6.8181 0.057 13.626 0.0402 20.445 0.064-0.3844 30.714 0.091 61.438-0.4267 92.148zm-5.2121-185.33c-0.331 4.0756-0.4372 8.2053-0.2094 12.313 1.8646 0.6565 6.2017-0.837 5.9384 2.4275-0.1817 15.041 0.0364 30.095-0.2117 45.134-6.835-0.1508-13.652-0.0544-20.48-0.2185 0.3644-15.721 0.0225-31.453 0.3204-47.177 1.9546-0.0405 3.9094-0.0812 5.8571-0.1088-0.3929-3.9598 1.1641-8.6074-0.8093-12.154-31.093-0.437-62.204-0.1216-93.297-0.3719-3.2637 0.1099-6.6714-0.452-9.8411 0.421-1.2581 3.6909-0.3059 7.8698-0.5373 11.762 2.0193 0.2148 4.0427 0.5167 6.0586 0.8315-0.1317 15.542-0.3703 31.095-0.0219 46.627-6.8632 0.0883-13.715 0.2501-20.576-0.1351 0.1684-15.641 4e-3 -31.294 0.1391-46.936 1.9717 0.0532 3.9177-0.1277 5.8383-0.5427 0.3005-3.9568 0.1739-7.9078 0.1403-11.842-34.702-0.5658-69.422-0.0054-104.13-0.4915-0.6627 4.2178-0.5474 8.5018-0.0647 12.765 1.8751-0.05 3.7693-0.0726 5.6552-0.049-0.1129 33.93-0.1795 67.869-0.1794 101.81-17.451 0.5104-34.908 1.0007-52.347 1.7383 1.8506-2.2843 3.6608-4.5565 5.5876-6.7314 9.72-15.779 11.2-34.709 12.954-52.71 1.3141-11.663 2.2241-23.799 7.8078-34.364 2.5283-4.7814 3.6809-10.089 4.3865-15.386-4.3573 0.3129-10.677-1.2875-12.486 4.1049-4.7838 9.1854-11.121 18.172-12.02 28.788-2.21 15.092-2.4508 30.711-7.8452 45.143-3.3356 9.1411-10.544 16.671-19.524 20.441-13.003 5.8075-28.338 6.6361-41.774 1.7489-8.8113-3.2246-15.714-10.465-19.135-19.12-7.4058-18.584-5.8153-39.218-11.923-58.131-1.4902-4.4371-2.8288-9.2158-6.42-12.437-3.3271-3.7391-8.461-4.7126-13.145-5.5775-0.672 0.5505-2.0029 1.6591-2.6818 2.2227 6.5825 9.2028 8.0029 20.638 10.004 31.472 2.6341 14.976 3.9785 30.235 8.2173 44.879 3.1377 10.926 8.8941 21.494 18.252 28.271-29.35 0.6619-58.686 1.8909-88.028 2.7263-9.5717 0.1432-19.182 1.2319-28.728 0.016-16.032-0.2616-32.611 2.6718-46.264 11.518-24.302 14.626-37.907 44.18-34.019 72.179-1.6857-1.6102-3.3511-3.2267-4.9903-4.8287-30.628-0.5748-61.563 3.787-91.917-1.9453-31.147-5.9258-58.745-25.352-77.157-50.861-30.225-41.315-38.986-99.12-17.23-146.15 13.001-28.628 36.844-51.777 64.965-65.414 56.809-11.454 115.02-13.074 172.8-13.563 92.583-0.2189 185.16 5.3221 277.72 1.7155-0.186-3.9664-0.1753-8.2329 3.7038-10.569l-3.9518-0.8401c1.8605-0.8038 3.9601 0.2004 5.7476-0.8124-0.405 21.854-0.157 43.722-0.3622 65.583-0.3188 4.3026 1.829 8.2152 4.9939 11.036-3.2784-0.0508-6.5796-0.2156-9.8631 0.0868-2.2393 2.3445-0.7551 6.168-1.0764 9.1638 34.695 0.1722 69.408 0.0315 104.1 0.2703 0.3663-3.141 0.5112-6.2495 0.39-9.3671-3.8597-0.0104-7.7267-0.0078-11.594 0.215 3.2543-2.5901 5.9489-6.1792 5.6161-10.53 0.1779-18.095 0.0287-36.18 0.2128-54.254 6.7542 0.1747 13.52 0.2034 20.278 0.0584 0.1865 18.36-0.2346 36.746-2e-3 55.115-0.2348 3.9922 2.5308 6.9857 5.2444 9.5441-3.7935-0.1948-7.6079-0.1637-11.402 0.0482 0.0082 2.9203-0.0112 5.8597-0.0244 8.8193 34.752 0.6608 69.54 0.4427 104.29 0.3234 0.5878-2.9869 0.351-6.0483 0.3121-9.0364-3.8171-0.0889-7.6495-0.1184-11.464 0.0994 2.1649-2.1135 4.0972-4.455 5.5724-7.0786 0.0062-19.12-0.0546-38.243 0.251-57.353 6.7772 0.2889 13.562 0.1581 20.345 0.4673-0.1046 17.897-0.2094 35.794-0.1533 53.676-0.3115 4.2896 2.5462 7.7063 5.5966 10.363-3.891-0.2649-7.7853-0.2432-11.671-0.0811-0.0146 2.9929-0.0038 6.0334-0.0062 9.0667 34.873 0.0316 69.754 0.4232 104.62 0.0278-0.0259-2.9811-0.0066-5.9204-4e-4 -8.8669-3.7903-0.2947-7.5976-0.2766-11.381 0.0089 2.5521-2.9205 5.4948-6.1545 5.3416-10.306 0.1273-17.783 0.0884-35.571 0.1957-53.348 162.78 1.5126 325.57 2.8123 488.34 5.8576-0.0353 4.999-0.486 10.044 0.1991 15.027 0.7455 0.6253 2.2438 1.8625 3.0026 2.4949 0.3208 51.086-0.3727 102.2 0.0349 153.28-93.54 1.7-187.08 3.0801-280.6 4.6871-0.4365-0.6946-1.3037-2.064-1.7402-2.7588-5.045-0.0438-10.096-0.1077-15.137 0.0886 0.01-2.2665 0.0188-4.4995-0.0128-6.7207 12.385-5.075 23.137-14.292 29.398-26.167 7.9281-14.446 9.0409-32.389 3.0457-47.732-7.4083-20.078-27.042-34.874-48.368-36.502-20.153-2.0074-40.552 7.8036-52.239 24.209-9.5114 14.146-12.765 32.503-7.7787 48.892 4.6843 16.852 17.759 30.648 33.786 37.349-0.0529 2.1583-0.1118 4.2965-0.1135 6.5165l-17.228-0.1646-2.2726 4.3022 0.3304-0.0052v2e-4c-44.343 0.7067-88.687 1.4052-133.03 2.1987 0.1002-32.564-0.0198-65.129 0.267-97.694 1.6887 0.1372 3.3907 0.2813 5.0854 0.4386 0.9363-4.0353 1.6139-8.4991 0.2341-12.452-34.546-0.6339-69.132-0.1022-103.7-0.4767zm283.83 85.291c-19.438 6.23-42.336-3.8971-50.959-22.362-8.7332-16.982-4.0532-39.278 10.451-51.628 9.5001-8.286 22.648-12.049 35.099-10.001 12.296 2.1155 23.851 9.5594 30.178 20.42 5.4442 8.9576 7.3859 19.964 5.3914 30.256-2.7073 15.602-14.928 29.023-30.16 33.316zm0.8091 21.835c-0.1462 0.0024-0.2921 0.0045-0.4384 7e-3v-0.0167c0.1462 0.0043 0.2924 0.0053 0.4384 0.0097zm157.14 159.53c-5.4808 2.3817-9.7625 6.7705-12.03 12.321-11.818 0.1273-23.64-0.0188-35.442 0.4226-2.2865-5.5308-6.4911-9.9329-12.013-12.253-0.0409-2.7347-0.1022-5.4637-0.1515-8.1521 19.962 0.361 39.92 1.0085 59.885 1.4897-0.1081 2.0098-0.1717 4.0943-0.2486 6.1718zm189.61-21.081c-0.8464-0.0018-2.5255-0.0321-3.3721-0.0339 0.1541-3.9684 0.2272-7.9126 0.3468-11.849 0.7886 0.1399 2.3851 0.4471 3.1868 0.5942-0.0204 3.7528 6e-3 7.5138-0.1615 11.288zm-511.87-70.208c-7.6079-0.1638-15.288 0.8035-22.84-0.3984 9.0933-1.5728 18.394-0.5918 27.57-1.0685 152.4-2.5983 304.79-5.0503 457.18-7.6354 10.46 1 54.66-0.9916 59.091-1.1285 4.7061-5.7012 13.884-2.0396 16.954 4.391-179.32 2.0889-358.63 3.871-537.95 5.8398zm579.77 66.082c1.7788-3.7134 2.657-10.17 8.2457-8.2549-2.5972 2.8789-5.3316 5.6667-8.2457 8.2549zm25.38 23.885c-1.1868-1.7802-2.4564-3.4698-3.7888-5.0748 0.201-1.2133 0.4282-2.4124 0.6744-3.5841-2.9573-2.4532-5.3402-6.9005-9.9481-5.6895 2.5859-2.7328 5.3885-5.1781 7.7668-8.0912-2.4827-2.484-4.9169-5.0262-7.4365-7.4114 3.5688 0.1405 7.2633 0.1121 10.235-2.2076 4.6941-0.8081 9.5938-0.4026 14.349-0.0753 0.4746 11.803-4.92 22.894-11.852 32.134zm8.696-133.08c0.0161 12.147-0.3551 24.322 0.2344 36.475-6.0922 0.3544-12.222 0.2472-18.241-0.7828-2.6165-26.156-20.382-50.076-44.728-59.973-8.7732-3.7631-18.29-5.4381-27.802-5.686-4.4591-4.3707-11.5-2.1752-16.881-0.9771-6.1713 0.5315-12.385 0.1416-18.559 0.5531-0.1367-51.206 0.2128-102.4 0.1428-153.61 1.6951-0.2495 3.4092-0.4716 5.1425-0.6663 0.4454-5.2852 0.4445-10.592 0.2561-15.865 40.243 0.5395 80.467 1.8317 120.71 2.4713 0.116 4.064-0.2032 8.18 0.2458 12.255 1.3051 1.0308 2.7421 1.9127 4.3108 2.6457-0.2981 58.752-0.1766 117.51-0.4211 176.26 0.6345 3.515-5.3714 3.0854-4.4066 6.8981zm55.224 36.24c-0.2512-0.8484-0.761-2.5325-1.0123-3.3809-4.5024 0.8612-11.859-2.6074-13.603 3.2272-4.9214 0.0404-9.835 0.0344-14.731 0.3091 0.5562-13.108 0.5344-26.276 0.1904-39.382-1.0852-0.4364-3.2357-1.3159-4.3079-1.7454 0.3274-59.617 0.215-119.24 0.4221-178.85 1.3335-0.395 2.6919-0.7424 4.0432-1.0767 0.2571-4.2515 0.5474-8.5018 0.5509-12.755 34.205 1.4489 68.508 1.5944 102.68 3.3823 19.213 16.603 33.479 38.945 40.251 63.442 10.242 35.467 4.5496 75.302-15.538 106.3-21.297 34.041-58.943 57.07-98.947 60.525zm141.82 0.1179c-1.3976 6.0396-0.2856 12.204 3.5741 17.148-8.425 11.582-19.05 21.784-31.916 28.276-3.1223 1.2545-6.7533 4.7253-9.6565 1.2671 4.9362-2.8467 10.017-5.4283 15.034-8.1123-1.9949-4.6942-4.4778-9.1448-7.1533-13.429-5.2068 2.5642-10.269 5.3933-15.419 8.0394-0.611-1.0608-1.8257-3.1952-2.4291-4.2689 14.968-9.8947 28.619-21.86 40.177-35.59 2.6271 2.1554 5.3433 4.2405 7.7882 6.6699z"/>
</svg>
