<?xml version="1.0" encoding="UTF-8" standalone="no"?>
<svg width="106.67" xmlns="http://www.w3.org/2000/svg" height="106.67">
 <defs>
  <linearGradient id="svg_1">
   <stop offset="0"/>
   <stop stop-color="#fff" offset="1"/>
  </linearGradient>
 </defs>
 <g id="layer1">
  <g id="g10453" stroke-width="1.25" stroke="url(#svg_1)" transform="matrix(.96927 0 0 .96927 .38699 2.0647)">
   <g stroke-linejoin="round" stroke-linecap="round">
    <path id="path9681" d="m70.032 4.3759c-4.182 6.7229-5.1624 15.576-8.1536 23.086l-11.94 37.758c-11-12.497-34.63-4.7486-36 11.958-2.9368 15.69 15.411 29.887 29.906 22.698 13.674-7.188 14.049-24.626 18.982-37.497 3.5684-11.824 7.1368-23.648 10.705-35.472 3.6591 9.5669 8.8614 23.029-0.81669 30.796-6.0381 2.8495-4.2854 14.034 3.2229 11.735 13.14-5.4587 18.013-23.406 12.055-35.86-4.4189-9.2932-10.012-18.167-15.22-27.083-0.76261-0.68289-1.2657-3.0301-2.7409-2.1196z"/>
    <path id="path1291" d="m70.69 6.1644l-2.3173 7.3408-17.546 55.576c-3.9341-5.5448-10.574-8.9252-17.814-8.1741-10.69 1.1091-18.465 10.683-17.356 21.374 1.1092 10.691 10.684 18.465 21.374 17.356 8.4287-0.87447 14.96-7.0502 16.839-14.848l19.371-64.055c1.6908 2.9616 3.6794 9.8446 5.0451 13.829 1.6293 4.7539 2.529 9.796 1.8532 14.228-0.67571 4.4325-2.667 8.3338-7.5467 11.748-1.3023 0.76034-2.0634 2.1868-1.9733 3.6921 0.090111 1.5053 1.014 2.8276 2.3977 3.4271 1.3837 0.59953 2.9891 0.37614 4.149-0.58756 6.5203-4.5618 9.9044-10.785 10.86-17.056 0.95599-6.271 0.37424-12.566-2.2131-17.065-5.0598-7.8905-8.2005-14.225-10.906-18.739-1.2475-2.6987-2.8113-5.3646-4.217-8.0468z"/>
    <path id="path2057" d="m29.374 62.479c-7.297 2.3556-11.243 7.7307-12.469 14.228 6.6469 28.461 14.41-11.38 33.392-6.1874 0.36888-1.9902-8.9621-11.569-20.923-8.0407z"/>
    <path id="path3587" d="m51.737 68.998c4.8015-2.2725 14.704-50.34 20.975-50.353-1.84-0.42948-2.1713-3.2401-2.2861-9.7912-0.32803 1.0519-18.474 60.367-18.689 60.144z"/>
   </g>
   <path id="path5873" fill-rule="evenodd" d="m72.574 18.916s22.416 33.863 6.5183 35.93c3.6566-4.2925 3.8156-16.534-6.5183-35.93z"/>
  </g>
 </g>
</svg>
